<?xml version="1.0" standalone="no"?>
<!DOCTYPE svg PUBLIC "-//W3C//DTD SVG 20010904//EN"
 "http://www.w3.org/TR/2001/REC-SVG-20010904/DTD/svg10.dtd">
<svg version="1.0" xmlns="http://www.w3.org/2000/svg"
 width="67.000000pt" height="67.000000pt" viewBox="0 0 67.000000 67.000000"
 preserveAspectRatio="xMidYMid meet">

<g transform="translate(0.000000,67.000000) scale(0.100000,-0.100000)"
fill="#000000" stroke="none">
<path d="M0 335 l0 -335 335 0 335 0 0 335 0 335 -335 0 -335 0 0 -335z m363
235 c7 -6 27 -20 46 -33 46 -30 70 -65 78 -112 3 -22 12 -48 20 -57 20 -23 13
-60 -15 -74 -35 -17 -35 -19 -3 -70 22 -34 31 -60 31 -91 l0 -43 -185 0 -185
0 0 43 c0 31 9 57 31 91 32 51 32 53 -3 70 -29 15 -35 52 -12 77 17 18 17 20
0 32 -23 17 -18 56 9 71 11 6 36 25 56 42 20 18 46 35 58 39 12 3 21 11 21 16
0 12 38 12 53 -1z"/>
<path d="M274 521 c-57 -35 -51 -41 35 -41 73 0 81 -2 81 -19 0 -10 9 -21 19
-24 11 -2 21 -15 23 -28 6 -41 28 -34 28 9 0 92 -107 151 -186 103z"/>
<path d="M172 438 c7 -20 158 -23 183 -4 18 14 11 15 -83 16 -79 0 -103 -3
-100 -12z"/>
<path d="M360 410 c-8 -5 -34 -10 -57 -10 -33 0 -43 -4 -43 -16 0 -9 -9 -18
-20 -21 -24 -6 -26 -39 -6 -87 18 -44 52 -66 101 -66 49 0 83 22 101 66 20 48
18 81 -5 87 -11 2 -21 15 -23 28 -3 26 -25 34 -48 19z m-55 -85 c0 -11 -7 -21
-16 -23 -18 -3 -33 23 -23 39 10 17 39 5 39 -16z m99 16 c9 -14 -4 -41 -19
-41 -18 0 -28 17 -21 35 6 17 32 20 40 6z m-34 -75 c0 -17 -27 -28 -51 -21
-34 11 -22 35 16 35 23 0 35 -5 35 -14z"/>
<path d="M210 390 c0 -5 7 -10 15 -10 8 0 15 5 15 10 0 6 -7 10 -15 10 -8 0
-15 -4 -15 -10z"/>
<path d="M174 345 c-7 -17 3 -35 18 -35 7 0 7 4 -1 13 -8 10 -7 17 1 25 9 9 9
12 0 12 -7 0 -15 -7 -18 -15z"/>
<path d="M477 349 c10 -10 10 -16 0 -27 -10 -12 -9 -14 3 -10 8 2 15 13 15 23
0 10 -7 20 -15 23 -12 4 -13 2 -3 -9z"/>
<path d="M192 201 c-30 -54 -30 -91 2 -91 13 0 27 6 30 13 5 10 7 10 12 0 8
-18 190 -18 198 0 5 10 7 9 12 0 3 -7 17 -13 30 -13 32 0 32 37 2 91 -25 45
-28 46 -53 19 -43 -48 -137 -47 -180 0 -24 27 -28 26 -53 -19z m161 -46 c7
-17 -8 -29 -28 -21 -17 6 -9 36 10 36 7 0 15 -7 18 -15z"/>
</g>
</svg>
